<svg xmlns="http://www.w3.org/2000/svg" version="1.1" xmlns:xlink="http://www.w3.org/1999/xlink" xmlns:svgjs="http://svgjs.dev/svgjs" width="1000" height="1000" viewBox="0 0 1000 1000"><rect width="1000" height="1000" fill="#ffffff"></rect><g transform="matrix(0.7,0,0,0.7,149.57575757575756,416.51043673485935)"><svg viewBox="0 0 396 95" data-background-color="#ffffff" preserveAspectRatio="xMidYMid meet" height="239" width="1000" xmlns="http://www.w3.org/2000/svg" xmlns:xlink="http://www.w3.org/1999/xlink"><g id="tight-bounds" transform="matrix(1,0,0,1,0.2400000000000091,-0.09110274842578292)"><svg viewBox="0 0 395.52 95.18208555179373" height="95.18208555179373" width="395.52"><g><svg viewBox="0 0 544.735353098275 131.09083480402148" height="95.18208555179373" width="395.52"><g transform="matrix(1,0,0,1,149.2153530982751,29.959171467505968)"><svg viewBox="0 0 395.52 71.17249186900955" height="71.17249186900955" width="395.52"><g><svg viewBox="0 0 395.52 71.17249186900955" height="71.17249186900955" width="395.52"><g><svg viewBox="0 0 395.52 38.387041237257556" height="38.387041237257556" width="395.52"><g transform="matrix(1,0,0,1,0,0)"><svg width="395.52" viewBox="1.6500000953674316 -35.400001525878906 369.86724853515625 35.900001525878906" height="38.387041237257556" data-palette-color="#ff851b"><path d="M15.25 0L15.25 0Q14.35 0 13.75-0.6 13.15-1.2 13.15-2.05L13.15-2.05 13.15-32.95 17.4-32.95 17.4-2.05Q17.4-1.2 16.8-0.6 16.2 0 15.25 0ZM26.9-31.2L3.65-31.2Q2.8-31.2 2.23-31.73 1.65-32.25 1.65-33.1L1.65-33.1Q1.65-33.95 2.23-34.48 2.8-35 3.65-35L3.65-35 26.9-35Q27.75-35 28.35-34.48 28.95-33.95 28.95-33.1L28.95-33.1Q28.95-32.2 28.35-31.7 27.75-31.2 26.9-31.2L26.9-31.2ZM37.25 0L37.25 0Q36.3 0 35.62-0.6 34.95-1.2 34.95-2.05L34.95-2.05 34.95-33Q34.95-33.85 35.52-34.43 36.1-35 36.95-35L36.95-35 50.75-35Q53.55-35 55.8-33.73 58.05-32.45 59.37-30.23 60.7-28 60.7-25.1L60.7-25.1Q60.7-23 59.9-21.18 59.1-19.35 57.7-18.03 56.3-16.7 54.5-16L54.5-16 53.4-16.8Q55.1-16.4 56.45-15.38 57.8-14.35 58.65-12.78 59.5-11.2 59.55-9.1L59.55-9.1Q59.65-7.25 59.8-6.15 59.95-5.05 60.25-4.42 60.55-3.8 61.1-3.45L61.1-3.45Q61.8-3 62.02-2.25 62.25-1.5 61.75-0.8L61.75-0.8Q61.45-0.35 60.9-0.18 60.35 0 59.8-0.05 59.25-0.1 58.85-0.35L58.85-0.35Q58.05-0.8 57.3-1.68 56.55-2.55 56.05-4.2 55.55-5.85 55.55-8.7L55.55-8.7Q55.55-10.3 55.05-11.35 54.55-12.4 53.7-13.05 52.85-13.7 51.8-13.95 50.75-14.2 49.65-14.2L49.65-14.2 38.5-14.2 39.1-15.1 39.1-2.05Q39.1-1.2 38.6-0.6 38.1 0 37.25 0ZM39.1-16.9L38.5-17.8 50.75-17.8Q52.2-17.9 53.47-18.8 54.75-19.7 55.57-21.33 56.4-22.95 56.4-25L56.4-25Q56.4-27.65 54.72-29.4 53.05-31.15 50.5-31.15L50.5-31.15 38.7-31.15 39.1-32.1 39.1-16.9ZM93.3-35.05L93.3-35.05Q94.14-35.05 94.69-34.45 95.25-33.85 95.25-33L95.25-33 95.25-13.15Q95.25-9.3 93.47-6.25 91.69-3.2 88.69-1.43 85.69 0.35 81.89 0.35L81.89 0.35Q78.05 0.35 75.02-1.43 72-3.2 70.25-6.25 68.5-9.3 68.5-13.15L68.5-13.15 68.5-33Q68.5-33.85 69.07-34.45 69.64-35.05 70.59-35.05L70.59-35.05Q71.39-35.05 72.02-34.45 72.64-33.85 72.64-33L72.64-33 72.64-13.15Q72.64-10.4 73.89-8.25 75.14-6.1 77.27-4.88 79.39-3.65 81.89-3.65L81.89-3.65Q84.44-3.65 86.59-4.88 88.75-6.1 90.07-8.25 91.39-10.4 91.39-13.15L91.39-13.15 91.39-33Q91.39-33.85 91.89-34.45 92.39-35.05 93.3-35.05ZM129.19-32.7L129.19-32.7Q130.04-32.25 130.17-31.35 130.29-30.45 129.69-29.7L129.69-29.7Q129.24-29.05 128.54-29 127.84-28.95 127.14-29.3L127.14-29.3Q125.49-30.3 123.59-30.88 121.69-31.45 119.59-31.45L119.59-31.45Q116.64-31.45 114.19-30.43 111.74-29.4 109.94-27.55 108.14-25.7 107.14-23.15 106.14-20.6 106.14-17.5L106.14-17.5Q106.14-14.2 107.19-11.6 108.24-9 110.07-7.18 111.89-5.35 114.32-4.4 116.74-3.45 119.59-3.45L119.59-3.45Q121.64-3.45 123.54-4 125.44-4.55 127.14-5.6L127.14-5.6Q127.84-5.95 128.54-5.85 129.24-5.75 129.74-5.15L129.74-5.15Q130.34-4.35 130.19-3.48 130.04-2.6 129.24-2.2L129.24-2.2Q127.99-1.45 126.39-0.83 124.79-0.2 123.07 0.15 121.34 0.5 119.59 0.5L119.59 0.5Q115.99 0.5 112.79-0.75 109.59-2 107.14-4.35 104.69-6.7 103.27-10.03 101.84-13.35 101.84-17.5L101.84-17.5Q101.84-21.4 103.19-24.65 104.54-27.9 106.97-30.3 109.39-32.7 112.62-34.05 115.84-35.4 119.59-35.4L119.59-35.4Q122.19-35.4 124.67-34.7 127.14-34 129.19-32.7ZM160.94 0.1L160.94 0.1Q160.04 0.1 159.44-0.65L159.44-0.65 146.14-17.6 149.19-20.7 162.74-3.35Q163.19-2.7 163.19-2L163.19-2Q163.19-1 162.47-0.45 161.74 0.1 160.94 0.1ZM160.79-35.05L160.79-35.05Q161.59-35.05 162.12-34.4 162.64-33.75 162.64-33.05L162.64-33.05Q162.64-32.35 162.04-31.75L162.04-31.75 139.94-10.85 139.59-15.5 159.19-34.3Q159.94-35.05 160.79-35.05ZM138.29 0L138.29 0Q137.34 0 136.79-0.6 136.24-1.2 136.24-2.05L136.24-2.05 136.24-32.95Q136.24-33.85 136.84-34.43 137.44-35 138.34-35L138.34-35Q139.29-35 139.84-34.43 140.39-33.85 140.39-32.95L140.39-32.95 140.39-2.05Q140.39-1.2 139.81-0.6 139.24 0 138.29 0ZM194.29 0L194.29 0Q193.39 0 192.79-0.6 192.19-1.2 192.19-2.05L192.19-2.05 192.19-32.95 196.44-32.95 196.44-2.05Q196.44-1.2 195.84-0.6 195.24 0 194.29 0ZM205.94-31.2L182.69-31.2Q181.84-31.2 181.26-31.73 180.69-32.25 180.69-33.1L180.69-33.1Q180.69-33.95 181.26-34.48 181.84-35 182.69-35L182.69-35 205.94-35Q206.79-35 207.39-34.48 207.99-33.95 207.99-33.1L207.99-33.1Q207.99-32.2 207.39-31.7 206.79-31.2 205.94-31.2L205.94-31.2ZM216.28 0L216.28 0Q215.33 0 214.66-0.6 213.98-1.2 213.98-2.05L213.98-2.05 213.98-33Q213.98-33.85 214.56-34.43 215.13-35 215.98-35L215.98-35 229.78-35Q232.58-35 234.83-33.73 237.08-32.45 238.41-30.23 239.73-28 239.73-25.1L239.73-25.1Q239.73-23 238.93-21.18 238.13-19.35 236.73-18.03 235.33-16.7 233.53-16L233.53-16 232.43-16.8Q234.13-16.4 235.48-15.38 236.83-14.35 237.68-12.78 238.53-11.2 238.58-9.1L238.58-9.1Q238.68-7.25 238.83-6.15 238.98-5.05 239.28-4.42 239.58-3.8 240.13-3.45L240.13-3.45Q240.83-3 241.06-2.25 241.28-1.5 240.78-0.8L240.78-0.8Q240.48-0.35 239.93-0.18 239.38 0 238.83-0.05 238.28-0.1 237.88-0.35L237.88-0.35Q237.08-0.8 236.33-1.68 235.58-2.55 235.08-4.2 234.58-5.85 234.58-8.7L234.58-8.7Q234.58-10.3 234.08-11.35 233.58-12.4 232.73-13.05 231.88-13.7 230.83-13.95 229.78-14.2 228.68-14.2L228.68-14.2 217.53-14.2 218.13-15.1 218.13-2.05Q218.13-1.2 217.63-0.6 217.13 0 216.28 0ZM218.13-16.9L217.53-17.8 229.78-17.8Q231.23-17.9 232.51-18.8 233.78-19.7 234.61-21.33 235.43-22.95 235.43-25L235.43-25Q235.43-27.65 233.76-29.4 232.08-31.15 229.53-31.15L229.53-31.15 217.73-31.15 218.13-32.1 218.13-16.9ZM258.78-29.85L259.88-29.8 248.13-1.2Q247.93-0.6 247.43-0.25 246.93 0.1 246.38 0.1L246.38 0.1Q245.43 0.1 244.98-0.4 244.53-0.9 244.53-1.6L244.53-1.6Q244.48-1.95 244.63-2.35L244.63-2.35 257.58-33.85Q257.83-34.55 258.36-34.88 258.88-35.2 259.53-35.15L259.53-35.15Q260.18-35.15 260.71-34.8 261.23-34.45 261.43-33.85L261.43-33.85 274.33-2.65Q274.48-2.25 274.48-1.85L274.48-1.85Q274.48-0.95 273.88-0.43 273.28 0.1 272.53 0.1L272.53 0.1Q271.93 0.1 271.43-0.25 270.93-0.6 270.68-1.25L270.68-1.25 258.78-29.85ZM267.93-9.35L250.63-9.35 252.33-13.25 267.18-13.25 267.93-9.35ZM281.98-35L294.48-35Q298.13-35 300.9-33.63 303.68-32.25 305.53-29.8 307.38-27.35 308.3-24.18 309.23-21 309.23-17.5L309.23-17.5Q309.23-12.7 307.58-8.72 305.93-4.75 302.68-2.38 299.43 0 294.48 0L294.48 0 281.98 0Q281.13 0 280.55-0.6 279.98-1.2 279.98-2.05L279.98-2.05 279.98-33Q279.98-33.85 280.55-34.43 281.13-35 281.98-35L281.98-35ZM283.83-3.9L293.98-3.9Q297.83-3.9 300.25-5.75 302.68-7.6 303.8-10.7 304.93-13.8 304.93-17.5L304.93-17.5Q304.93-20.2 304.3-22.68 303.68-25.15 302.35-27.05 301.03-28.95 298.95-30.05 296.88-31.15 293.98-31.15L293.98-31.15 283.73-31.15 284.13-31.55 284.13-3.4 283.83-3.9ZM317.88-35L317.88-35 335.68-35Q336.53-35 337.13-34.45 337.73-33.9 337.73-33.05L337.73-33.05Q337.73-32.2 337.13-31.68 336.53-31.15 335.68-31.15L335.68-31.15 319.58-31.15 320.03-32 320.03-19.35 319.53-19.9 333.43-19.9Q334.28-19.9 334.88-19.35 335.48-18.8 335.48-17.95L335.48-17.95Q335.48-17.1 334.88-16.57 334.28-16.05 333.43-16.05L333.43-16.05 319.68-16.05 320.03-16.5 320.03-3.55 319.73-3.9 335.68-3.9Q336.53-3.9 337.13-3.3 337.73-2.7 337.73-1.95L337.73-1.95Q337.73-1.1 337.13-0.55 336.53 0 335.68 0L335.68 0 317.88 0Q317.03 0 316.45-0.6 315.88-1.2 315.88-2.05L315.88-2.05 315.88-33Q315.88-33.85 316.45-34.43 317.03-35 317.88-35ZM346.67 0L346.67 0Q345.72 0 345.05-0.6 344.37-1.2 344.37-2.05L344.37-2.05 344.37-33Q344.37-33.85 344.95-34.43 345.52-35 346.37-35L346.37-35 360.17-35Q362.97-35 365.22-33.73 367.47-32.45 368.8-30.23 370.12-28 370.12-25.1L370.12-25.1Q370.12-23 369.32-21.18 368.52-19.35 367.12-18.03 365.72-16.7 363.92-16L363.92-16 362.82-16.8Q364.52-16.4 365.87-15.38 367.22-14.35 368.07-12.78 368.92-11.2 368.97-9.1L368.97-9.1Q369.07-7.25 369.22-6.15 369.37-5.05 369.67-4.42 369.97-3.8 370.52-3.45L370.52-3.45Q371.22-3 371.45-2.25 371.67-1.5 371.17-0.8L371.17-0.8Q370.87-0.35 370.32-0.18 369.77 0 369.22-0.05 368.67-0.1 368.27-0.35L368.27-0.35Q367.47-0.8 366.72-1.68 365.97-2.55 365.47-4.2 364.97-5.85 364.97-8.7L364.97-8.7Q364.97-10.3 364.47-11.35 363.97-12.4 363.12-13.05 362.27-13.7 361.22-13.95 360.17-14.2 359.07-14.2L359.07-14.2 347.92-14.2 348.52-15.1 348.52-2.05Q348.52-1.2 348.02-0.6 347.52 0 346.67 0ZM348.52-16.9L347.92-17.8 360.17-17.8Q361.62-17.9 362.9-18.8 364.17-19.7 365-21.33 365.82-22.95 365.82-25L365.82-25Q365.82-27.65 364.15-29.4 362.47-31.15 359.92-31.15L359.92-31.15 348.12-31.15 348.52-32.1 348.52-16.9Z" opacity="1" transform="matrix(1,0,0,1,0,0)" fill="#000000" class="undefined-text-0" data-fill-palette-color="primary" id="text-0"></path></svg></g></svg></g><g transform="matrix(1,0,0,1,114.64479015786435,47.44930038438437)"><svg viewBox="0 0 166.23041968427128 23.72319148462517" height="23.72319148462517" width="166.23041968427128"><g transform="matrix(1,0,0,1,0,0)"><svg width="166.23041968427128" viewBox="5 -38.400001525878906 346.1199951171875 49.400001525878906" height="23.72319148462517" data-palette-color="#ed9140"><path d="M5-1.8L5-1.8 5-37.7 10.4-38.4 10.4-25.7Q13.7-27.3 17.45-27.3L17.45-27.3Q21.95-27.3 24.88-23.8 27.8-20.3 27.8-13.7 27.8-7.1 24.53-3.25 21.25 0.6 14.7 0.6L14.7 0.6Q12.25 0.6 9.43-0.18 6.6-0.95 5-1.8ZM22.1-13.73Q22.1-18.7 20.48-20.9 18.85-23.1 15.85-23.1 12.85-23.1 10.4-21.7L10.4-21.7 10.4-4.25Q12.1-3.6 14.8-3.6L14.8-3.6Q18.9-3.6 20.5-6.18 22.1-8.75 22.1-13.73ZM50.45-26.35L55.85-27.05 55.85-6.25Q55.85-4.45 56.27-3.95 56.7-3.45 58.2-3.45L58.2-3.45 58.4-0.3Q57.15 0.15 55.75 0.15L55.75 0.15Q52.7 0.15 51.45-2.25L51.45-2.25Q48.2 0.6 43.3 0.6L43.3 0.6Q34.2 0.6 34.2-9.2L34.2-9.2 34.2-26.35 39.6-27.05 39.6-10.2Q39.6-3.6 44.85-3.6L44.85-3.6Q48.45-3.6 50.45-5.7L50.45-5.7 50.45-26.35ZM65.65 9.45L66.8 5.4Q70.2 6.65 73.8 6.65 77.4 6.65 79.37 5 81.34 3.35 81.34-1.5L81.34-1.5Q78.2 0.6 74 0.6 69.8 0.6 67.45-2.23 65.09-5.05 65.09-9.2L65.09-9.2 65.09-26.35 70.5-27.05 70.5-10.2Q70.5-3.6 75.75-3.6L75.75-3.6Q79.8-3.6 81.34-5.85L81.34-5.85 81.34-26.35 86.75-27.05 86.75-1.6Q86.75 4.5 83.57 7.75 80.4 11 74.55 11L74.55 11Q70.95 11 69.17 10.5 67.4 10 66.57 9.73 65.75 9.45 65.65 9.45L65.65 9.45ZM107.94-1.35L107.94-1.35 109.09-5.4Q113.19-3.6 116.14-3.6L116.14-3.6Q121.24-3.6 121.24-7.05L121.24-7.05Q121.24-9.75 116.34-11.55L116.34-11.55Q114.44-12.25 113.49-12.68 112.54-13.1 111.14-14L111.14-14Q108.39-15.8 108.39-19.43 108.39-23.05 110.97-25.13 113.54-27.2 117.94-27.2L117.94-27.2Q122.39-27.2 125.59-25.7L125.59-25.7Q126.19-25.45 126.24-25.45L126.24-25.45 125.19-21.4Q121.54-23 118.69-23L118.69-23Q113.69-23 113.69-19.6L113.69-19.6Q113.69-18.6 114.22-18.07 114.74-17.55 115.04-17.32 115.34-17.1 116.04-16.78 116.74-16.45 117.07-16.32 117.39-16.2 118.29-15.85 119.19-15.5 120.12-15.18 121.04-14.85 122.07-14.3 123.09-13.75 124.24-12.8L124.24-12.8Q126.54-10.9 126.54-7L126.54-7Q126.54-4.35 124.99-2.6L124.99-2.6Q122.24 0.6 115.79 0.6L115.79 0.6Q111.49 0.6 107.94-1.35ZM151.29-5.7L151.29-5.7 153.14-2.3Q152.29-1.5 149.54-0.45 146.79 0.6 143.64 0.6L143.64 0.6Q138.04 0.6 134.61-2.8 131.19-6.2 131.19-13L131.19-13Q131.19-16.75 132.39-19.63 133.59-22.5 135.49-24.1L135.49-24.1Q139.39-27.3 143.66-27.3 147.94-27.3 150.46-25.13 152.99-22.95 152.99-19.8L152.99-19.8Q152.99-15.65 149.04-13.03 145.09-10.4 136.39-10.4L136.39-10.4Q136.39-8.1 138.31-5.85 140.24-3.6 144.01-3.6 147.79-3.6 151.29-5.7ZM148.14-19.35L148.14-19.35Q148.14-20.85 147.01-21.98 145.89-23.1 143.84-23.1L143.84-23.1Q140.54-23.1 138.41-20.63 136.29-18.15 136.24-14.15L136.24-14.15Q148.14-14.15 148.14-19.35ZM160.29-8.15L160.29-37.7 165.69-38.4 165.69-8.25Q165.69-3.6 168.34-3.6L168.34-3.6Q168.99-3.6 170.74-3.95L170.74-3.95 171.39-0.25Q171.34-0.25 170.96-0.1 170.59 0.05 170.09 0.2L170.09 0.2Q168.84 0.6 167.04 0.6L167.04 0.6Q163.59 0.6 161.94-1.73 160.29-4.05 160.29-8.15L160.29-8.15ZM176.43-8.15L176.43-37.7 181.83-38.4 181.83-8.25Q181.83-3.6 184.48-3.6L184.48-3.6Q185.13-3.6 186.88-3.95L186.88-3.95 187.53-0.25Q187.48-0.25 187.11-0.1 186.73 0.05 186.23 0.2L186.23 0.2Q184.98 0.6 183.18 0.6L183.18 0.6Q179.73 0.6 178.08-1.73 176.43-4.05 176.43-8.15L176.43-8.15ZM207.58-25.75L208.73-32.05 212.98-32.6 212.98-25.75 220.73-25.75 220.13-22.15 212.98-22.15 212.98-8.75Q212.98-6.05 213.8-4.83 214.63-3.6 216.38-3.6 218.13-3.6 220.33-4L220.33-4 220.98-0.35Q217.88 0.6 214.98 0.6L214.98 0.6Q210.93 0.6 209.25-1.55 207.58-3.7 207.58-7.65L207.58-7.65 207.58-22.15 203.83-22.15 203.83-25.25 207.58-25.75ZM227.98 0L227.98-18.2Q227.98-22.7 227.08-26.3L227.08-26.3 231.28-26.85 232.53-23.6Q235.68-27.3 239.63-27.3L239.63-27.3Q242.28-27.3 243.75-26.05 245.23-24.8 245.23-22.5 245.23-20.2 244.48-18.45L244.48-18.45 240.18-19Q240.18-21.25 239.75-22.18 239.33-23.1 238-23.1 236.68-23.1 235.4-22.05 234.13-21 233.38-19.7L233.38-19.7 233.38 0 227.98 0ZM265.77-26.35L271.17-27.05 271.17-6.25Q271.17-4.45 271.6-3.95 272.02-3.45 273.52-3.45L273.52-3.45 273.72-0.3Q272.47 0.15 271.07 0.15L271.07 0.15Q268.02 0.15 266.77-2.25L266.77-2.25Q263.52 0.6 258.62 0.6L258.62 0.6Q249.52 0.6 249.52-9.2L249.52-9.2 249.52-26.35 254.92-27.05 254.92-10.2Q254.92-3.6 260.17-3.6L260.17-3.6Q263.77-3.6 265.77-5.7L265.77-5.7 265.77-26.35ZM290.75 0.6Q285.02 0.6 281.92-3.3 278.82-7.2 278.82-13.28 278.82-19.35 282.12-23.33 285.42-27.3 291.27-27.3L291.27-27.3Q296.17-27.3 300.27-25.2L300.27-25.2 298.77-21.55Q295.37-23.1 292.37-23.1L292.37-23.1Q288.37-23.1 286.45-20.45 284.52-17.8 284.52-13.8L284.52-13.8Q284.52-3.6 292.42-3.6L292.42-3.6Q295.37-3.6 298.57-5.3L298.57-5.3 300.32-1.8Q296.47 0.6 290.75 0.6ZM311.97-9.95L311.97 0 306.57 0 306.57-37.7 311.97-38.4 311.97-15.6 323.42-27 329.92-26.4 318.57-15.75 324.37-7.55Q327.12-3.7 330.07-3.6L330.07-3.6 330.07 0.25Q329.67 0.35 328.42 0.35L328.42 0.35Q323.37 0.35 320.07-4.5L320.07-4.5 314.72-12.5 311.97-9.95ZM332.52-1.35L332.52-1.35 333.67-5.4Q337.77-3.6 340.72-3.6L340.72-3.6Q345.82-3.6 345.82-7.05L345.82-7.05Q345.82-9.75 340.92-11.55L340.92-11.55Q339.02-12.25 338.07-12.68 337.12-13.1 335.72-14L335.72-14Q332.97-15.8 332.97-19.43 332.97-23.05 335.54-25.13 338.12-27.2 342.52-27.2L342.52-27.2Q346.97-27.2 350.17-25.7L350.17-25.7Q350.77-25.45 350.82-25.45L350.82-25.45 349.77-21.4Q346.12-23 343.27-23L343.27-23Q338.27-23 338.27-19.6L338.27-19.6Q338.27-18.6 338.79-18.07 339.32-17.55 339.62-17.32 339.92-17.1 340.62-16.78 341.32-16.45 341.64-16.32 341.97-16.2 342.87-15.85 343.77-15.5 344.69-15.18 345.62-14.85 346.64-14.3 347.67-13.75 348.82-12.8L348.82-12.8Q351.12-10.9 351.12-7L351.12-7Q351.12-4.35 349.57-2.6L349.57-2.6Q346.82 0.6 340.37 0.6L340.37 0.6Q336.07 0.6 332.52-1.35Z" opacity="1" transform="matrix(1,0,0,1,0,0)" fill="#000000" class="undefined-text-1" data-fill-palette-color="secondary" id="text-1"></path></svg></g></svg></g></svg></g></svg></g><g><svg viewBox="0 0 131.09083480402148 131.09083480402148" height="131.09083480402148" width="131.09083480402148"><g><svg></svg></g><g id="icon-0"><svg viewBox="0 0 131.09083480402148 131.09083480402148" height="131.09083480402148" width="131.09083480402148"><g><path d="M0 65.545c0-36.2 29.346-65.545 65.545-65.545 36.2 0 65.545 29.346 65.546 65.545 0 36.2-29.346 65.545-65.546 65.546-36.2 0-65.545-29.346-65.545-65.546zM65.545 127.629c34.288 0 62.084-27.796 62.084-62.084 0-34.288-27.796-62.084-62.084-62.083-34.288 0-62.084 27.796-62.083 62.083 0 34.288 27.796 62.084 62.083 62.084z" data-fill-palette-color="accent" fill="#000000" stroke="transparent"></path></g><g transform="matrix(1,0,0,1,26.586467718262135,46.10607052798659)"><svg viewBox="0 0 77.91789936749721 38.87869374804831" height="38.87869374804831" width="77.91789936749721"><g><svg version="1.0" xmlns="http://www.w3.org/2000/svg" xmlns:xlink="http://www.w3.org/1999/xlink" x="0" y="0" viewBox="0 0 100 49.89699935913086" enable-background="new 0 0 100 49.896" xml:space="preserve" width="77.91789936749721" height="38.87869374804831" class="icon-a-0" data-fill-palette-color="accent" id="a-0"><path fill-rule="evenodd" clip-rule="evenodd" d="M89.246 39.297H100V0H31.951v6.746h-9.34c-3.82 0-6.197 0-7.777 5.325l-2.604 10.389H6.154c-2.98 0-2.98 0-2.98 2.907 0 4.639 0 9.277 0 13.931H0v3.215h11.399c0.595 4.394 3.354 7.384 7.716 7.384 4.333 0 7.272-3.059 8.25-7.384h4.585v-3.215h40.103c-0.079 0.419-0.115 1.313-0.115 1.768 0 4.87 3.928 8.831 8.744 8.831 4.812 0 8.729-3.961 8.729-8.831C89.412 40.517 89.351 39.81 89.246 39.297" fill="#000000" data-fill-palette-color="accent"></path></svg></g></svg></g></svg></g></svg></g></svg></g><defs></defs></svg><rect width="395.52" height="95.18208555179373" fill="none" stroke="none" visibility="hidden"></rect></g></svg></g></svg>